<svg id="svg" version="1.1" xmlns="http://www.w3.org/2000/svg" xmlns:xlink="http://www.w3.org/1999/xlink" width="400" height="69.22060766182298" viewBox="0, 0, 400,69.22060766182298"><g id="svgg"><path id="path0" d="M31.667 3.829 C 31.162 3.905,30.225 4.048,29.583 4.146 C 24.921 4.854,19.349 7.272,15.603 10.213 C 14.285 11.246,14.079 11.426,12.777 12.667 C 10.336 14.994,8.117 18.041,6.563 21.200 C 6.054 22.236,5.568 23.214,5.485 23.373 C 5.402 23.532,5.333 23.746,5.333 23.848 C 5.333 23.950,5.229 24.269,5.101 24.558 C 3.529 28.110,2.750 34.996,3.421 39.409 C 3.912 42.642,5.181 47.200,5.675 47.505 C 5.770 47.564,5.913 47.830,5.993 48.098 C 6.110 48.489,6.141 48.356,6.153 47.417 C 6.221 42.256,13.357 40.964,15.063 45.804 C 16.472 49.801,10.281 53.231,7.436 50.028 C 6.534 49.012,6.750 50.073,7.802 51.818 C 13.495 61.265,23.699 66.992,34.857 67.003 C 40.168 67.008,44.098 66.080,49.115 63.638 C 55.990 60.290,62.065 53.562,64.588 46.500 C 70.215 30.753,63.323 13.878,48.333 6.701 C 45.834 5.504,43.588 4.824,39.417 4.002 C 38.177 3.757,32.908 3.640,31.667 3.829 M35.868 15.250 C 35.842 15.433,35.755 15.733,35.675 15.917 C 35.595 16.100,35.364 16.813,35.162 17.500 C 34.959 18.188,34.700 19.012,34.586 19.333 C 34.471 19.654,34.247 20.367,34.087 20.917 C 33.927 21.467,33.701 22.179,33.585 22.500 C 33.468 22.821,33.205 23.646,32.999 24.333 C 32.793 25.021,32.418 26.221,32.165 27.000 C 31.912 27.779,31.463 29.204,31.167 30.167 C 30.870 31.129,30.421 32.554,30.168 33.333 C 29.915 34.112,29.540 35.313,29.334 36.000 C 29.129 36.688,28.865 37.512,28.748 37.833 C 28.632 38.154,28.406 38.867,28.246 39.417 C 28.086 39.967,27.862 40.679,27.748 41.000 C 27.633 41.321,27.374 42.146,27.172 42.833 C 26.969 43.521,26.743 44.233,26.669 44.417 C 26.595 44.600,26.386 45.237,26.205 45.833 C 25.332 48.706,24.781 50.469,24.587 51.000 C 24.470 51.321,24.224 52.071,24.040 52.667 L 23.705 53.750 20.811 53.750 L 17.917 53.750 17.965 53.333 C 17.991 53.104,18.115 52.654,18.240 52.333 C 18.364 52.012,18.708 50.962,19.004 50.000 C 19.977 46.836,20.207 46.100,20.670 44.667 C 20.922 43.887,21.370 42.462,21.667 41.500 C 21.963 40.537,22.412 39.112,22.665 38.333 C 22.918 37.554,23.293 36.354,23.499 35.667 C 23.705 34.979,23.968 34.154,24.085 33.833 C 24.201 33.512,24.427 32.800,24.587 32.250 C 24.747 31.700,24.971 30.988,25.086 30.667 C 25.200 30.346,25.459 29.521,25.662 28.833 C 25.864 28.146,26.090 27.433,26.164 27.250 C 26.239 27.067,26.448 26.429,26.629 25.833 C 27.122 24.208,27.992 21.429,28.506 19.833 C 28.757 19.054,29.125 17.854,29.323 17.167 C 29.522 16.479,29.793 15.671,29.925 15.371 L 30.165 14.825 33.041 14.871 C 35.809 14.915,35.915 14.929,35.868 15.250 M208.353 17.060 C 208.216 17.225,208.177 22.314,208.208 36.018 L 208.250 54.750 212.417 54.750 L 216.583 54.750 216.626 45.053 L 216.669 35.355 217.274 34.857 C 219.188 33.280,222.544 33.671,223.500 35.583 L 223.917 36.417 224.000 45.583 L 224.083 54.750 228.250 54.750 L 232.417 54.750 232.417 45.583 C 232.417 34.707,232.290 33.590,230.767 31.093 C 228.224 26.920,221.569 26.152,217.843 29.601 C 217.314 30.091,216.833 30.444,216.774 30.385 C 216.715 30.326,216.667 27.330,216.667 23.728 C 216.667 17.423,216.655 17.172,216.344 17.006 C 215.825 16.728,208.588 16.776,208.353 17.060 M360.667 17.435 C 355.718 19.304,357.180 25.574,362.500 25.298 C 366.879 25.071,368.509 20.137,364.935 17.927 C 364.133 17.431,361.485 17.126,360.667 17.435 M87.917 18.775 C 86.594 19.049,84.500 19.656,84.250 19.838 C 84.158 19.905,83.905 20.014,83.687 20.081 C 81.287 20.818,78.725 23.688,78.002 26.450 C 76.672 31.527,79.753 36.048,86.394 38.764 C 86.957 38.993,87.567 39.253,87.750 39.340 C 87.933 39.427,88.646 39.684,89.333 39.911 C 94.927 41.756,96.228 42.779,96.228 45.332 C 96.228 47.663,94.641 48.866,91.571 48.860 C 87.933 48.854,85.851 47.443,85.551 44.780 C 85.376 43.226,85.720 43.333,80.911 43.333 L 76.667 43.333 76.667 44.140 C 76.667 45.585,77.841 49.173,78.476 49.667 C 78.535 49.712,78.874 50.111,79.229 50.553 C 84.736 57.404,100.345 56.943,103.962 49.823 C 106.784 44.266,104.272 38.464,97.667 35.286 C 96.023 34.495,95.884 34.441,92.583 33.313 C 87.595 31.609,85.823 29.957,86.569 27.709 C 87.935 23.596,95.605 24.392,96.253 28.715 C 96.399 29.687,96.277 29.662,100.833 29.662 C 105.165 29.662,105.079 29.686,104.947 28.476 C 104.410 23.523,100.819 19.985,95.157 18.831 C 93.198 18.432,89.700 18.405,87.917 18.775 M52.917 23.609 C 54.349 23.929,55.375 24.290,56.250 24.785 C 56.617 24.992,57.067 25.229,57.250 25.313 C 58.660 25.956,60.607 28.859,60.785 30.584 C 60.935 32.036,61.039 32.000,56.755 32.000 C 52.590 32.000,52.694 32.030,52.347 30.724 C 51.951 29.237,50.101 28.412,48.248 28.896 C 45.721 29.556,45.284 32.147,47.500 33.333 C 48.083 33.645,50.354 34.328,50.819 34.331 C 51.197 34.333,51.811 34.486,54.000 35.124 C 63.956 38.025,62.998 48.701,52.583 50.917 C 45.718 52.378,37.795 48.395,37.484 43.326 C 37.410 42.128,37.285 42.167,41.256 42.167 C 45.227 42.167,45.111 42.132,45.404 43.392 C 46.151 46.602,52.833 46.352,52.833 43.114 C 52.833 42.512,51.730 41.167,51.236 41.167 C 51.112 41.167,50.765 41.063,50.464 40.937 C 49.846 40.678,48.636 40.326,46.917 39.906 C 40.290 38.286,37.203 34.621,38.430 29.831 C 39.696 24.891,46.178 22.107,52.917 23.609 M117.750 27.841 C 112.718 29.156,109.947 32.094,108.664 37.471 C 108.236 39.269,108.185 44.204,108.583 45.333 C 108.721 45.723,108.833 46.187,108.833 46.365 C 108.833 47.790,112.441 52.650,114.000 53.325 C 114.229 53.424,114.747 53.692,115.151 53.919 C 115.555 54.147,115.956 54.333,116.043 54.333 C 116.129 54.333,116.436 54.438,116.725 54.565 C 119.248 55.681,124.585 55.681,127.109 54.565 C 127.397 54.438,127.706 54.333,127.793 54.333 C 128.444 54.333,131.463 52.249,132.141 51.333 C 132.638 50.660,132.643 50.668,129.857 47.542 C 128.760 46.310,128.834 46.325,127.886 47.159 C 124.535 50.108,119.016 49.453,117.341 45.907 C 116.533 44.197,115.872 44.334,124.953 44.331 C 129.337 44.329,133.022 44.261,133.152 44.179 C 133.429 44.004,133.297 38.258,132.989 37.083 C 132.893 36.717,132.740 36.117,132.649 35.750 C 131.158 29.742,124.335 26.121,117.750 27.841 M144.167 27.779 C 139.364 28.914,136.054 32.122,136.006 35.691 C 135.997 36.317,136.105 36.333,140.344 36.333 L 144.160 36.333 144.259 35.875 C 144.651 34.053,145.517 33.333,147.317 33.333 C 149.433 33.333,150.575 34.784,150.464 37.333 L 150.417 38.417 147.750 38.512 C 139.554 38.803,135.687 41.422,135.375 46.892 C 134.976 53.887,143.974 58.139,149.700 53.661 C 150.963 52.673,150.955 52.674,151.101 53.458 C 151.367 54.889,151.174 54.833,155.853 54.833 C 158.134 54.833,159.998 54.777,159.996 54.708 C 159.995 54.640,159.804 54.058,159.572 53.417 C 158.992 51.809,158.845 49.544,158.838 42.156 C 158.832 34.610,158.707 33.801,157.199 31.520 C 155.121 28.379,149.031 26.630,144.167 27.779 M175.434 27.849 C 174.140 28.374,172.797 29.524,172.166 30.646 C 171.932 31.064,171.691 30.675,171.585 29.706 C 171.383 27.864,171.705 28.000,167.545 28.003 C 165.550 28.004,163.822 28.065,163.707 28.138 C 163.542 28.243,163.507 31.029,163.541 41.510 L 163.583 54.750 167.708 54.795 L 171.833 54.839 171.834 46.461 C 171.834 37.113,171.796 37.436,173.006 36.470 C 174.109 35.589,175.327 35.294,177.583 35.359 L 179.583 35.417 179.727 31.784 C 179.905 27.295,179.997 27.496,177.766 27.509 C 176.655 27.516,176.032 27.607,175.434 27.849 M190.917 27.656 C 190.733 27.730,190.246 27.848,189.833 27.917 C 189.156 28.031,186.704 29.058,186.500 29.313 C 186.454 29.371,186.113 29.624,185.741 29.875 C 184.277 30.868,181.833 34.381,181.833 35.495 C 181.833 35.583,181.720 35.990,181.581 36.399 C 180.107 40.739,181.176 47.836,183.792 51.084 C 189.825 58.572,203.016 56.088,204.620 47.161 C 204.970 45.214,205.212 45.326,200.768 45.376 L 197.120 45.417 196.928 46.175 C 196.085 49.497,191.668 50.087,190.125 47.083 C 189.107 45.103,189.050 37.727,190.038 35.962 C 191.779 32.853,195.783 33.299,196.739 36.707 C 197.210 38.389,196.842 38.244,200.773 38.295 C 205.205 38.352,204.976 38.478,204.618 36.182 C 203.929 31.768,201.203 28.894,196.639 27.773 C 195.456 27.482,191.544 27.402,190.917 27.656 M272.250 27.787 C 270.690 28.265,269.079 29.206,268.108 30.209 C 267.523 30.812,267.398 30.699,267.185 29.374 C 267.093 28.800,266.972 28.256,266.916 28.165 C 266.793 27.966,259.685 27.940,259.374 28.138 C 259.208 28.243,259.174 31.029,259.207 41.510 L 259.250 54.750 263.375 54.795 L 267.500 54.839 267.500 45.578 C 267.500 35.307,267.449 35.789,268.620 34.880 C 270.452 33.456,272.798 33.532,273.802 35.048 L 274.250 35.725 274.333 45.238 L 274.417 54.750 278.583 54.750 L 282.750 54.750 282.833 45.333 C 282.925 34.965,282.864 35.533,283.968 34.716 C 286.152 33.102,289.065 33.876,289.512 36.190 C 289.589 36.590,289.655 40.948,289.659 45.875 L 289.667 54.833 293.833 54.833 L 298.000 54.833 298.000 45.096 C 298.000 34.996,297.919 33.719,297.180 32.189 C 297.108 32.039,296.907 31.617,296.734 31.250 C 294.566 26.666,286.680 26.135,282.785 30.311 C 281.891 31.269,281.760 31.319,281.487 30.809 C 280.073 28.167,275.691 26.733,272.250 27.787 M312.250 27.648 C 312.067 27.727,311.579 27.846,311.167 27.913 C 308.247 28.389,304.887 31.138,303.420 34.250 C 302.992 35.160,302.775 35.799,302.321 37.500 C 302.048 38.521,301.946 42.327,302.144 44.083 C 302.942 51.157,307.737 55.406,314.917 55.401 C 319.449 55.398,323.942 53.205,325.565 50.203 C 327.322 46.953,327.704 45.394,327.701 41.490 C 327.694 34.207,324.402 29.274,318.620 27.884 C 317.447 27.602,312.764 27.429,312.250 27.648 M381.143 27.579 C 381.099 27.623,380.581 27.767,379.990 27.900 C 374.264 29.189,371.308 33.250,370.575 40.834 C 370.011 46.669,373.444 52.453,378.623 54.391 C 382.144 55.709,386.719 55.784,389.442 54.568 C 389.731 54.439,390.039 54.333,390.127 54.333 C 390.757 54.333,393.709 52.331,394.382 51.446 C 394.904 50.760,394.881 50.710,393.000 48.432 C 391.185 46.235,391.294 46.284,390.226 47.179 C 387.451 49.504,382.871 49.632,380.777 47.443 C 379.980 46.609,379.009 44.747,379.222 44.462 C 379.237 44.442,382.925 44.385,387.417 44.337 L 395.583 44.250 395.583 41.333 C 395.581 33.701,392.784 29.368,386.879 27.852 C 385.602 27.524,381.398 27.324,381.143 27.579 M329.281 28.108 C 329.102 28.287,329.146 28.773,329.395 29.369 C 329.521 29.670,329.905 30.817,330.248 31.917 C 330.591 33.017,330.976 34.163,331.103 34.464 C 331.230 34.765,331.333 35.119,331.333 35.250 C 331.333 35.381,331.439 35.735,331.569 36.036 C 331.698 36.337,332.196 37.821,332.676 39.333 C 333.156 40.846,333.883 43.133,334.291 44.417 C 334.699 45.700,335.138 46.996,335.266 47.297 C 335.395 47.598,335.500 47.952,335.500 48.083 C 335.500 48.215,335.604 48.568,335.731 48.869 C 335.857 49.170,336.244 50.317,336.590 51.417 C 336.936 52.517,337.339 53.735,337.485 54.124 L 337.750 54.832 341.938 54.833 C 346.549 54.833,346.368 54.875,346.643 53.743 C 346.732 53.380,346.896 52.821,347.009 52.500 C 347.122 52.179,347.307 51.654,347.420 51.333 C 347.533 51.012,347.905 49.850,348.245 48.750 C 348.586 47.650,348.926 46.600,349.001 46.417 C 349.076 46.233,349.679 44.396,350.341 42.333 C 351.977 37.237,352.970 34.182,353.184 33.583 C 353.282 33.308,353.424 32.858,353.500 32.583 C 353.576 32.308,353.717 31.858,353.814 31.583 C 354.737 28.976,354.941 28.180,354.711 28.091 C 354.438 27.987,346.167 27.964,346.167 28.068 C 346.167 28.106,345.820 29.474,345.397 31.110 C 344.974 32.745,344.570 34.346,344.501 34.667 C 344.305 35.569,343.982 36.838,343.730 37.698 C 343.603 38.128,343.500 38.588,343.500 38.721 C 343.500 38.853,343.393 39.327,343.263 39.773 C 343.042 40.531,342.502 42.655,342.260 43.722 L 342.153 44.195 341.840 43.797 C 341.668 43.578,341.477 43.103,341.415 42.741 C 341.352 42.379,341.201 41.708,341.078 41.250 C 340.558 39.309,340.446 38.870,340.244 38.000 C 340.029 37.076,339.671 35.593,339.217 33.750 C 339.081 33.200,338.872 32.337,338.753 31.833 C 338.297 29.915,338.120 29.232,337.931 28.667 L 337.736 28.083 333.565 28.039 C 331.271 28.014,329.343 28.046,329.281 28.108 M358.281 28.108 C 358.218 28.171,358.167 34.210,358.167 41.528 L 358.167 54.833 362.334 54.833 L 366.502 54.833 366.459 41.458 L 366.417 28.083 362.406 28.039 C 360.200 28.014,358.343 28.046,358.281 28.108 M122.463 34.120 C 124.095 34.634,125.166 36.221,125.167 38.125 L 125.167 39.000 120.978 39.000 L 116.789 39.000 116.877 38.375 C 117.339 35.081,119.731 33.259,122.463 34.120 M316.127 34.119 C 318.081 34.735,319.002 36.312,319.348 39.631 C 320.035 46.212,317.510 50.119,313.461 48.739 C 311.337 48.016,310.333 45.692,310.333 41.500 C 310.333 35.796,312.538 32.988,316.127 34.119 M385.448 34.372 C 386.810 35.047,388.041 37.823,387.423 38.823 C 387.295 39.030,379.401 39.077,379.274 38.872 C 379.121 38.625,379.503 37.073,379.923 36.232 C 381.014 34.051,383.270 33.292,385.448 34.372 M150.300 43.200 C 150.433 43.333,150.500 44.061,150.500 45.375 L 150.500 47.349 149.707 48.142 C 147.305 50.544,143.727 49.663,143.764 46.678 C 143.787 44.745,144.712 43.599,146.583 43.182 C 147.607 42.954,150.066 42.966,150.300 43.200 M234.778 54.944 C 234.717 55.006,234.667 56.431,234.667 58.112 L 234.667 61.169 245.792 61.126 L 256.917 61.083 256.962 58.167 C 257.003 55.572,256.977 55.229,256.722 55.042 C 256.413 54.816,235.001 54.721,234.778 54.944 " stroke="none" fill="#f99204" fill-rule="evenodd"></path><path id="path1" d="M0.000 34.583 L 0.000 69.167 200.000 69.167 L 400.000 69.167 400.000 34.583 L 400.000 0.000 200.000 0.000 L 0.000 0.000 0.000 34.583 M39.417 4.002 C 45.962 5.293,49.752 6.902,54.167 10.266 C 64.807 18.373,69.006 31.925,65.006 45.250 C 62.498 53.606,55.757 60.828,46.833 64.719 C 33.091 70.710,15.728 64.971,7.802 51.818 C 6.750 50.073,6.534 49.012,7.436 50.028 C 10.281 53.231,16.472 49.801,15.063 45.804 C 13.357 40.964,6.221 42.256,6.153 47.417 C 6.141 48.356,6.110 48.489,5.993 48.098 C 5.913 47.830,5.770 47.564,5.675 47.505 C 5.181 47.200,3.912 42.642,3.421 39.409 C 2.750 34.996,3.529 28.110,5.101 24.558 C 5.229 24.269,5.333 23.950,5.333 23.848 C 5.333 23.746,5.402 23.532,5.485 23.373 C 5.568 23.214,6.054 22.236,6.563 21.200 C 8.117 18.041,10.336 14.994,12.777 12.667 C 14.079 11.426,14.285 11.246,15.603 10.213 C 19.349 7.272,24.921 4.854,29.583 4.146 C 30.225 4.048,31.162 3.905,31.667 3.829 C 32.908 3.640,38.177 3.757,39.417 4.002 M29.925 15.371 C 29.793 15.671,29.522 16.479,29.323 17.167 C 29.125 17.854,28.757 19.054,28.506 19.833 C 27.992 21.429,27.122 24.208,26.629 25.833 C 26.448 26.429,26.239 27.067,26.164 27.250 C 26.090 27.433,25.864 28.146,25.662 28.833 C 25.459 29.521,25.200 30.346,25.086 30.667 C 24.971 30.988,24.747 31.700,24.587 32.250 C 24.427 32.800,24.201 33.512,24.085 33.833 C 23.968 34.154,23.705 34.979,23.499 35.667 C 23.293 36.354,22.918 37.554,22.665 38.333 C 22.412 39.112,21.963 40.537,21.667 41.500 C 21.370 42.462,20.922 43.887,20.670 44.667 C 20.207 46.100,19.977 46.836,19.004 50.000 C 18.708 50.962,18.364 52.012,18.240 52.333 C 18.115 52.654,17.991 53.104,17.965 53.333 L 17.917 53.750 20.811 53.750 L 23.705 53.750 24.040 52.667 C 24.224 52.071,24.470 51.321,24.587 51.000 C 24.781 50.469,25.332 48.706,26.205 45.833 C 26.386 45.237,26.595 44.600,26.669 44.417 C 26.743 44.233,26.969 43.521,27.172 42.833 C 27.374 42.146,27.633 41.321,27.748 41.000 C 27.862 40.679,28.086 39.967,28.246 39.417 C 28.406 38.867,28.632 38.154,28.748 37.833 C 28.865 37.512,29.129 36.688,29.334 36.000 C 29.540 35.313,29.915 34.112,30.168 33.333 C 30.421 32.554,30.870 31.129,31.167 30.167 C 31.463 29.204,31.912 27.779,32.165 27.000 C 32.418 26.221,32.793 25.021,32.999 24.333 C 33.205 23.646,33.468 22.821,33.585 22.500 C 33.701 22.179,33.927 21.467,34.087 20.917 C 34.247 20.367,34.471 19.654,34.586 19.333 C 34.700 19.012,34.959 18.188,35.162 17.500 C 35.364 16.813,35.595 16.100,35.675 15.917 C 36.121 14.894,36.189 14.921,33.041 14.871 L 30.165 14.825 29.925 15.371 M216.344 17.006 C 216.655 17.172,216.667 17.423,216.667 23.728 C 216.667 27.330,216.715 30.326,216.774 30.385 C 216.833 30.444,217.314 30.091,217.843 29.601 C 221.569 26.152,228.224 26.920,230.767 31.093 C 232.290 33.590,232.417 34.707,232.417 45.583 L 232.417 54.750 228.250 54.750 L 224.083 54.750 224.000 45.583 L 223.917 36.417 223.500 35.583 C 222.544 33.671,219.188 33.280,217.274 34.857 L 216.669 35.355 216.626 45.053 L 216.583 54.750 212.417 54.750 L 208.250 54.750 208.208 36.018 C 208.177 22.314,208.216 17.225,208.353 17.060 C 208.588 16.776,215.825 16.728,216.344 17.006 M364.935 17.927 C 368.509 20.137,366.879 25.071,362.500 25.298 C 357.180 25.574,355.718 19.304,360.667 17.435 C 361.485 17.126,364.133 17.431,364.935 17.927 M95.157 18.831 C 100.819 19.985,104.410 23.523,104.947 28.476 C 105.079 29.686,105.165 29.662,100.833 29.662 C 96.277 29.662,96.399 29.687,96.253 28.715 C 95.605 24.392,87.935 23.596,86.569 27.709 C 85.823 29.957,87.595 31.609,92.583 33.313 C 95.884 34.441,96.023 34.495,97.667 35.286 C 104.272 38.464,106.784 44.266,103.962 49.823 C 100.345 56.943,84.736 57.404,79.229 50.553 C 78.874 50.111,78.535 49.712,78.476 49.667 C 77.841 49.173,76.667 45.585,76.667 44.140 L 76.667 43.333 80.911 43.333 C 85.720 43.333,85.376 43.226,85.551 44.780 C 85.851 47.443,87.933 48.854,91.571 48.860 C 94.641 48.866,96.228 47.663,96.228 45.332 C 96.228 42.779,94.927 41.756,89.333 39.911 C 88.646 39.684,87.933 39.427,87.750 39.340 C 87.567 39.253,86.957 38.993,86.394 38.764 C 79.753 36.048,76.672 31.527,78.002 26.450 C 78.725 23.688,81.287 20.818,83.687 20.081 C 83.905 20.014,84.158 19.905,84.250 19.838 C 84.500 19.656,86.594 19.049,87.917 18.775 C 89.700 18.405,93.198 18.432,95.157 18.831 M47.750 23.268 C 42.936 23.727,39.347 26.255,38.430 29.831 C 37.203 34.621,40.290 38.286,46.917 39.906 C 48.636 40.326,49.846 40.678,50.464 40.937 C 50.765 41.063,51.112 41.167,51.236 41.167 C 51.730 41.167,52.833 42.512,52.833 43.114 C 52.833 46.352,46.151 46.602,45.404 43.392 C 45.111 42.132,45.227 42.167,41.256 42.167 C 37.285 42.167,37.410 42.128,37.484 43.326 C 37.795 48.395,45.718 52.378,52.583 50.917 C 62.998 48.701,63.956 38.025,54.000 35.124 C 51.811 34.486,51.197 34.333,50.819 34.331 C 50.354 34.328,48.083 33.645,47.500 33.333 C 45.284 32.147,45.721 29.556,48.248 28.896 C 50.101 28.412,51.951 29.237,52.347 30.724 C 52.694 32.030,52.590 32.000,56.755 32.000 C 61.039 32.000,60.935 32.036,60.785 30.584 C 60.607 28.859,58.660 25.956,57.250 25.313 C 57.067 25.229,56.617 24.992,56.250 24.785 C 54.313 23.690,50.484 23.007,47.750 23.268 M124.510 27.850 C 128.545 28.854,131.697 31.913,132.649 35.750 C 132.740 36.117,132.893 36.717,132.989 37.083 C 133.297 38.258,133.429 44.004,133.152 44.179 C 133.022 44.261,129.337 44.329,124.953 44.331 C 115.872 44.334,116.533 44.197,117.341 45.907 C 119.016 49.453,124.535 50.108,127.886 47.159 C 128.834 46.325,128.760 46.310,129.857 47.542 C 132.643 50.668,132.638 50.660,132.141 51.333 C 131.463 52.249,128.444 54.333,127.793 54.333 C 127.706 54.333,127.397 54.438,127.109 54.565 C 124.585 55.681,119.248 55.681,116.725 54.565 C 116.436 54.438,116.129 54.333,116.043 54.333 C 115.956 54.333,115.555 54.147,115.151 53.919 C 114.747 53.692,114.229 53.424,114.000 53.325 C 112.441 52.650,108.833 47.790,108.833 46.365 C 108.833 46.187,108.721 45.723,108.583 45.333 C 107.923 43.463,108.330 37.896,109.324 35.188 C 111.456 29.380,117.984 26.226,124.510 27.850 M151.583 27.876 C 155.353 28.793,158.034 31.519,158.659 35.072 C 158.758 35.635,158.836 38.687,158.838 42.156 C 158.845 49.544,158.992 51.809,159.572 53.417 C 159.804 54.058,159.995 54.640,159.996 54.708 C 159.998 54.777,158.134 54.833,155.853 54.833 C 151.174 54.833,151.367 54.889,151.101 53.458 C 150.955 52.674,150.963 52.673,149.700 53.661 C 143.974 58.139,134.976 53.887,135.375 46.892 C 135.687 41.422,139.554 38.803,147.750 38.512 L 150.417 38.417 150.464 37.333 C 150.662 32.773,145.202 31.489,144.259 35.875 L 144.160 36.333 140.344 36.333 C 135.501 36.333,135.716 36.438,136.240 34.333 C 137.497 29.289,144.784 26.223,151.583 27.876 M179.576 27.826 C 179.849 28.127,179.860 28.424,179.727 31.784 L 179.583 35.417 177.583 35.359 C 175.327 35.294,174.109 35.589,173.006 36.470 C 171.796 37.436,171.834 37.113,171.834 46.461 L 171.833 54.839 167.708 54.795 L 163.583 54.750 163.541 41.510 C 163.507 31.029,163.542 28.243,163.707 28.138 C 163.822 28.065,165.550 28.004,167.545 28.003 C 171.705 28.000,171.383 27.864,171.585 29.706 C 171.691 30.675,171.932 31.064,172.166 30.646 C 172.797 29.524,174.140 28.374,175.434 27.849 C 176.609 27.373,179.153 27.358,179.576 27.826 M196.639 27.773 C 201.203 28.894,203.929 31.768,204.618 36.182 C 204.976 38.478,205.205 38.352,200.773 38.295 C 196.842 38.244,197.210 38.389,196.739 36.707 C 195.783 33.299,191.779 32.853,190.038 35.962 C 189.050 37.727,189.107 45.103,190.125 47.083 C 191.668 50.087,196.085 49.497,196.928 46.175 L 197.120 45.417 200.768 45.376 C 205.212 45.326,204.970 45.214,204.620 47.161 C 203.709 52.230,199.404 55.421,193.500 55.404 C 186.621 55.385,182.021 51.290,181.168 44.428 C 180.826 41.671,181.010 38.080,181.581 36.399 C 181.720 35.990,181.833 35.583,181.833 35.495 C 181.833 34.381,184.277 30.868,185.741 29.875 C 186.113 29.624,186.454 29.371,186.500 29.313 C 186.704 29.058,189.156 28.031,189.833 27.917 C 190.246 27.848,190.733 27.730,190.917 27.656 C 191.544 27.402,195.456 27.482,196.639 27.773 M277.617 27.828 C 279.223 28.332,280.819 29.561,281.487 30.809 C 281.760 31.319,281.891 31.269,282.785 30.311 C 286.680 26.135,294.566 26.666,296.734 31.250 C 296.907 31.617,297.108 32.039,297.180 32.189 C 297.919 33.719,298.000 34.996,298.000 45.096 L 298.000 54.833 293.833 54.833 L 289.667 54.833 289.659 45.875 C 289.655 40.948,289.589 36.590,289.512 36.190 C 289.065 33.876,286.152 33.102,283.968 34.716 C 282.864 35.533,282.925 34.965,282.833 45.333 L 282.750 54.750 278.583 54.750 L 274.417 54.750 274.333 45.238 L 274.250 35.725 273.802 35.048 C 272.798 33.532,270.452 33.456,268.620 34.880 C 267.449 35.789,267.500 35.307,267.500 45.578 L 267.500 54.839 263.375 54.795 L 259.250 54.750 259.207 41.510 C 259.174 31.029,259.208 28.243,259.374 28.138 C 259.685 27.940,266.793 27.966,266.916 28.165 C 266.972 28.256,267.093 28.800,267.185 29.374 C 267.398 30.699,267.523 30.812,268.108 30.209 C 270.358 27.886,274.497 26.850,277.617 27.828 M318.620 27.884 C 327.053 29.912,330.517 41.043,325.565 50.203 C 323.942 53.205,319.449 55.398,314.917 55.401 C 307.737 55.406,302.942 51.157,302.144 44.083 C 301.946 42.327,302.048 38.521,302.321 37.500 C 303.072 34.689,303.647 33.438,304.917 31.853 C 306.371 30.038,309.244 28.227,311.167 27.913 C 311.579 27.846,312.067 27.727,312.250 27.648 C 312.764 27.429,317.447 27.602,318.620 27.884 M386.879 27.852 C 392.784 29.368,395.581 33.701,395.583 41.333 L 395.583 44.250 387.417 44.337 C 382.925 44.385,379.237 44.442,379.222 44.462 C 379.009 44.747,379.980 46.609,380.777 47.443 C 382.871 49.632,387.451 49.504,390.226 47.179 C 391.294 46.284,391.185 46.235,393.000 48.432 C 394.881 50.710,394.904 50.760,394.382 51.446 C 393.709 52.331,390.757 54.333,390.127 54.333 C 390.039 54.333,389.731 54.439,389.442 54.568 C 386.719 55.784,382.144 55.709,378.623 54.391 C 373.444 52.453,370.011 46.669,370.575 40.834 C 371.308 33.250,374.264 29.189,379.990 27.900 C 380.581 27.767,381.099 27.623,381.143 27.579 C 381.398 27.324,385.602 27.524,386.879 27.852 M337.931 28.667 C 338.120 29.232,338.297 29.915,338.753 31.833 C 338.872 32.337,339.081 33.200,339.217 33.750 C 339.671 35.593,340.029 37.076,340.244 38.000 C 340.446 38.870,340.558 39.309,341.078 41.250 C 341.201 41.708,341.352 42.379,341.415 42.741 C 341.477 43.103,341.668 43.578,341.840 43.797 L 342.153 44.195 342.260 43.722 C 342.502 42.655,343.042 40.531,343.263 39.773 C 343.393 39.327,343.500 38.853,343.500 38.721 C 343.500 38.588,343.603 38.128,343.730 37.698 C 343.982 36.838,344.305 35.569,344.501 34.667 C 344.570 34.346,344.974 32.745,345.397 31.110 C 345.820 29.474,346.167 28.106,346.167 28.068 C 346.167 27.964,354.438 27.987,354.711 28.091 C 354.941 28.180,354.737 28.976,353.814 31.583 C 353.717 31.858,353.576 32.308,353.500 32.583 C 353.424 32.858,353.282 33.308,353.184 33.583 C 352.970 34.182,351.977 37.237,350.341 42.333 C 349.679 44.396,349.076 46.233,349.001 46.417 C 348.926 46.600,348.586 47.650,348.245 48.750 C 347.905 49.850,347.533 51.012,347.420 51.333 C 347.307 51.654,347.122 52.179,347.009 52.500 C 346.896 52.821,346.732 53.380,346.643 53.743 C 346.368 54.875,346.549 54.833,341.938 54.833 L 337.750 54.832 337.485 54.124 C 337.339 53.735,336.936 52.517,336.590 51.417 C 336.244 50.317,335.857 49.170,335.731 48.869 C 335.604 48.568,335.500 48.215,335.500 48.083 C 335.500 47.952,335.395 47.598,335.266 47.297 C 335.138 46.996,334.699 45.700,334.291 44.417 C 333.883 43.133,333.156 40.846,332.676 39.333 C 332.196 37.821,331.698 36.337,331.569 36.036 C 331.439 35.735,331.333 35.381,331.333 35.250 C 331.333 35.119,331.230 34.765,331.103 34.464 C 330.976 34.163,330.591 33.017,330.248 31.917 C 329.905 30.817,329.521 29.670,329.395 29.369 C 329.146 28.773,329.102 28.287,329.281 28.108 C 329.343 28.046,331.271 28.014,333.565 28.039 L 337.736 28.083 337.931 28.667 M366.459 41.458 L 366.502 54.833 362.334 54.833 L 358.167 54.833 358.167 41.528 C 358.167 34.210,358.218 28.171,358.281 28.108 C 358.343 28.046,360.200 28.014,362.406 28.039 L 366.417 28.083 366.459 41.458 M119.774 34.144 C 118.355 34.644,117.155 36.397,116.877 38.375 L 116.789 39.000 120.978 39.000 L 125.167 39.000 125.167 38.125 C 125.166 35.110,122.539 33.170,119.774 34.144 M313.432 34.168 C 310.871 35.168,309.624 39.750,310.575 44.667 C 311.379 48.822,315.370 50.509,317.817 47.729 C 320.120 45.113,320.012 37.319,317.642 35.000 C 316.549 33.931,314.883 33.602,313.432 34.168 M382.099 34.158 C 380.674 34.732,379.678 36.092,379.346 37.914 C 379.138 39.060,378.917 39.000,383.333 39.000 C 387.846 39.000,387.577 39.098,387.417 37.507 C 387.144 34.783,384.570 33.163,382.099 34.158 M146.583 43.182 C 144.712 43.599,143.787 44.745,143.764 46.678 C 143.727 49.663,147.305 50.544,149.707 48.142 L 150.500 47.349 150.500 45.375 C 150.500 44.061,150.433 43.333,150.300 43.200 C 150.066 42.966,147.607 42.954,146.583 43.182 M256.722 55.042 C 256.977 55.229,257.003 55.572,256.962 58.167 L 256.917 61.083 245.792 61.126 L 234.667 61.169 234.667 58.112 C 234.667 56.431,234.717 55.006,234.778 54.944 C 235.001 54.721,256.413 54.816,256.722 55.042 " stroke="none" fill-opacity="0" fill-rule="evenodd"></path></g></svg>
